<?xml version="1.0" encoding="UTF-8" standalone="no"?>
<!-- Created with Inkscape (http://www.inkscape.org/) -->

<svg
   xmlns:dc="http://purl.org/dc/elements/1.1/"
   xmlns:cc="http://creativecommons.org/ns#"
   xmlns:rdf="http://www.w3.org/1999/02/22-rdf-syntax-ns#"
   xmlns:svg="http://www.w3.org/2000/svg"
   xmlns="http://www.w3.org/2000/svg"
   xmlns:sodipodi="http://sodipodi.sourceforge.net/DTD/sodipodi-0.dtd"
   xmlns:inkscape="http://www.inkscape.org/namespaces/inkscape"
   width="100"
   height="100"
   viewBox="0 0 210 297"
   version="1.1"
   id="svg8"
   sodipodi:docname="icon.svg"
   inkscape:version="0.92.5 (2060ec1f9f, 2020-04-08)"
   inkscape:export-filename="/home/sp/Desktop/icon192.png"
   inkscape:export-xdpi="184.32001"
   inkscape:export-ydpi="184.32001">
  <defs
     id="defs2" />
  <sodipodi:namedview
     id="base"
     pagecolor="#ffffff"
     bordercolor="#666666"
     borderopacity="1.0"
     inkscape:pageopacity="0.0"
     inkscape:pageshadow="2"
     inkscape:zoom="2.8284271"
     inkscape:cx="25.728648"
     inkscape:cy="71.428567"
     inkscape:document-units="mm"
     inkscape:current-layer="svg8"
     showgrid="false"
     inkscape:window-width="959"
     inkscape:window-height="1015"
     inkscape:window-x="0"
     inkscape:window-y="0"
     inkscape:window-maximized="0" />
  <metadata
     id="metadata5">
    <rdf:RDF>
      <cc:Work
         rdf:about="">
        <dc:format>image/svg+xml</dc:format>
        <dc:type
           rdf:resource="http://purl.org/dc/dcmitype/StillImage" />
        <dc:title></dc:title>
      </cc:Work>
    </rdf:RDF>
  </metadata>
  <g
     inkscape:label="Layer 1"
     inkscape:groupmode="layer"
     id="layer1" />
  <path
     id="path815"
     d="m 167.83272,65.353321 c -25.41934,0 -48.20174,13.429727 -61.63039,33.33398 -13.18968,-19.664455 -35.972079,-33.33398 -61.631548,-33.33398 -40.767694,0 -73.621696,32.853886 -73.621696,73.621579 0,25.89927 16.307078,44.36532 33.333597,61.63155 l 66.666957,63.07 c 3.59779,3.35716 9.35293,0.71939 9.35293,-4.07738 v -49.16093 c 0,-14.14887 11.5111,-25.65914 25.65997,-25.65914 14.14803,0 25.65913,11.51027 25.65913,25.65914 v 49.16093 c 0,4.79677 5.75597,7.19475 9.35293,4.07738 l 66.66696,-63.07 c 17.02643,-17.26623 33.33348,-35.73228 33.33348,-61.63155 0.47959,-40.767693 -32.37429,-73.621579 -73.14232,-73.621579 z M 39.534791,195.81051 c -0.959273,1.19898 -2.398139,1.67858 -3.837006,1.67858 -1.199069,0 -2.398055,-0.4796 -3.357328,-1.19899 -22.06251,-19.42524 -33.09376601,-39.80883 -33.09376601,-60.43223 v -0.24013 c 0,-17.74591 10.79145801,-37.889961 25.18004101,-46.762958 2.398139,-1.438784 5.515587,-0.719475 6.954453,1.67858 1.438867,2.398139 0.719475,5.516003 -1.678664,6.954869 C 18.191671,104.68248 9.3186744,121.46896 9.3186744,135.61774 v 0.24013 c 0,17.50603 10.0720666,35.25186 29.7364386,52.75789 2.158341,1.67858 2.398139,5.03657 0.479678,7.19475 z M 72.38843,176.86486 c -0.95919,1.67858 -2.637773,2.6386 -4.556151,2.6386 -0.959189,0 -1.67858,-0.24063 -2.397972,-0.72022 C 50.566046,170.39034 40.49398,154.0833 40.49398,138.01588 v -0.24005 c 0,-15.34785 8.393402,-29.25668 22.06276,-36.45101 2.397972,-1.19907 5.515336,-0.23946 6.95412,2.15868 1.19899,2.39805 0.239797,5.51533 -2.158175,6.9542 -10.312114,5.27587 -16.546842,15.82728 -16.546842,27.33813 0,12.46988 7.913309,25.41976 19.664206,31.89511 2.397971,1.43879 3.117361,4.55615 1.918381,7.19392 z m 33.8139,-13.18968 c -12.23049,0 -22.06301,-9.83168 -22.06301,-22.06217 0,-12.23024 9.83252,-22.06235 22.06301,-22.06235 12.22966,0 22.06218,9.83211 22.06218,22.06235 0.2398,12.23049 -9.83252,22.06217 -22.06218,22.06217 z m 41.007,15.10806 c -0.7194,0.47959 -1.67859,0.72022 -2.39798,0.72022 -1.67858,0 -3.59696,-0.96002 -4.55614,-2.6386 -1.43879,-2.39797 -0.4796,-5.51534 1.91837,-6.95412 11.7509,-6.71432 19.66421,-19.4244 19.66421,-31.89486 0,-11.51085 -6.47453,-22.06226 -16.54684,-27.33813 -2.39797,-1.19899 -3.35716,-4.31694 -2.15818,-6.95479 1.19899,-2.39814 4.31635,-3.35716 6.95412,-2.15809 13.66928,7.19433 22.06301,21.10316 22.06301,36.45101 v 0.24005 c 0,15.82737 -10.07231,32.13441 -24.94057,40.52731 z m 66.18736,-43.1655 c 0,20.62373 -11.03067,41.00732 -33.09368,60.43173 -0.95919,0.95919 -2.15818,1.19899 -3.35716,1.19899 -1.43879,0 -2.87757,-0.47876 -3.83676,-1.67858 -1.91838,-2.15818 -1.67858,-5.27554 0.4796,-7.19392 19.6642,-17.50603 29.73652,-35.25185 29.73652,-52.75822 v -0.23996 c 0,-14.38867 -8.87333,-31.17514 -20.38443,-38.129596 -2.39797,-1.438866 -3.11737,-4.556147 -1.67858,-6.954286 1.43878,-2.398055 4.55698,-3.117947 6.95495,-1.67908 14.38867,9.112711 25.17954,29.256762 25.17954,46.762962 z"
     inkscape:connector-curvature="0"
     style="stroke-width:8.32629299;fill:#aa0000" />
  <ellipse
     style="opacity:1;fill:none;fill-opacity:1;stroke:#000000;stroke-width:11.22519685;stroke-linecap:round;stroke-linejoin:miter;stroke-miterlimit:3;stroke-dasharray:none;stroke-dashoffset:0;stroke-opacity:1;paint-order:normal"
     id="path8"
     ry="143.94905"
     rx="145.52414"
     cy="148.94244"
     cx="106.13264" />
  <path
     style="fill:none;stroke:#000000;stroke-width:11.22519685;stroke-linecap:butt;stroke-linejoin:miter;stroke-opacity:1;stroke-miterlimit:4;stroke-dasharray:none"
     d="M 9.0026799,39.736874 204.31264,252.89775"
     id="path823"
     inkscape:connector-curvature="0" />
</svg>
